<svg xmlns="http://www.w3.org/2000/svg" version="1.1" xmlns:xlink="http://www.w3.org/1999/xlink" xmlns:svgjs="http://svgjs.dev/svgjs" width="800" height="1024" preserveAspectRatio="none" viewBox="0 0 800 1024"><g mask="url(&quot;#SvgjsMask4144&quot;)" fill="none"><rect width="800" height="1024" x="0" y="0" fill="url(&quot;#SvgjsRadialGradient4145&quot;)"></rect><path d="M125 119L124 692" stroke-width="6" stroke="url(&quot;#SvgjsLinearGradient4146&quot;)" stroke-linecap="round" class="Up"></path><path d="M351 340L350 -44" stroke-width="6" stroke="url(&quot;#SvgjsLinearGradient4146&quot;)" stroke-linecap="round" class="Up"></path><path d="M729 171L728 -255" stroke-width="10" stroke="url(&quot;#SvgjsLinearGradient4146&quot;)" stroke-linecap="round" class="Up"></path><path d="M645 622L644 192" stroke-width="6" stroke="url(&quot;#SvgjsLinearGradient4147&quot;)" stroke-linecap="round" class="Down"></path><path d="M465 877L464 1178" stroke-width="10" stroke="url(&quot;#SvgjsLinearGradient4146&quot;)" stroke-linecap="round" class="Up"></path><path d="M540 463L539 80" stroke-width="8" stroke="url(&quot;#SvgjsLinearGradient4146&quot;)" stroke-linecap="round" class="Up"></path><path d="M411 476L410 1135" stroke-width="6" stroke="url(&quot;#SvgjsLinearGradient4147&quot;)" stroke-linecap="round" class="Down"></path><path d="M554 482L553 1133" stroke-width="6" stroke="url(&quot;#SvgjsLinearGradient4147&quot;)" stroke-linecap="round" class="Down"></path><path d="M534 133L533 -527" stroke-width="6" stroke="url(&quot;#SvgjsLinearGradient4147&quot;)" stroke-linecap="round" class="Down"></path><path d="M400 527L399 -118" stroke-width="6" stroke="url(&quot;#SvgjsLinearGradient4147&quot;)" stroke-linecap="round" class="Down"></path><path d="M636 715L635 1075" stroke-width="10" stroke="url(&quot;#SvgjsLinearGradient4146&quot;)" stroke-linecap="round" class="Up"></path><path d="M485 584L484 1058" stroke-width="6" stroke="url(&quot;#SvgjsLinearGradient4147&quot;)" stroke-linecap="round" class="Down"></path><path d="M672 857L671 545" stroke-width="6" stroke="url(&quot;#SvgjsLinearGradient4146&quot;)" stroke-linecap="round" class="Up"></path><path d="M226 113L225 -613" stroke-width="6" stroke="url(&quot;#SvgjsLinearGradient4147&quot;)" stroke-linecap="round" class="Down"></path><path d="M335 291L334 632" stroke-width="10" stroke="url(&quot;#SvgjsLinearGradient4147&quot;)" stroke-linecap="round" class="Down"></path><path d="M291 793L290 273" stroke-width="6" stroke="url(&quot;#SvgjsLinearGradient4146&quot;)" stroke-linecap="round" class="Up"></path><path d="M84 436L83 780" stroke-width="6" stroke="url(&quot;#SvgjsLinearGradient4146&quot;)" stroke-linecap="round" class="Up"></path><path d="M560 341L559 -265" stroke-width="6" stroke="url(&quot;#SvgjsLinearGradient4146&quot;)" stroke-linecap="round" class="Up"></path><path d="M488 864L487 1186" stroke-width="10" stroke="url(&quot;#SvgjsLinearGradient4146&quot;)" stroke-linecap="round" class="Up"></path><path d="M711 26L710 362" stroke-width="10" stroke="url(&quot;#SvgjsLinearGradient4147&quot;)" stroke-linecap="round" class="Down"></path></g><defs><mask id="SvgjsMask4144"><rect width="800" height="1024" fill="#ffffff"></rect></mask><radialGradient cx="100%" cy="100%" r="1299.45" gradientUnits="userSpaceOnUse" id="SvgjsRadialGradient4145"><stop stop-color="#0e2a47" offset="0"></stop><stop stop-color="rgba(0, 0, 0, 1)" offset="1"></stop></radialGradient><linearGradient x1="0%" y1="100%" x2="0%" y2="0%" id="SvgjsLinearGradient4146"><stop stop-color="rgba(23, 23, 23, 0)" offset="0"></stop><stop stop-color="rgba(23, 23, 23, 1)" offset="1"></stop></linearGradient><linearGradient x1="0%" y1="0%" x2="0%" y2="100%" id="SvgjsLinearGradient4147"><stop stop-color="rgba(23, 23, 23, 0)" offset="0"></stop><stop stop-color="rgba(23, 23, 23, 1)" offset="1"></stop></linearGradient></defs></svg>